<svg width="432" height="712" viewBox="0 0 432 712" fill="none" xmlns="http://www.w3.org/2000/svg">
<g clip-path="url(#clip0_58_163)">
<path opacity="0.38" d="M98.2856 218.242C76.2856 197.742 65.7856 175.742 89.2856 156.742L109.583 147.811C111.688 144.451 113.374 144.581 114.286 145.742L109.583 147.811C107.455 151.207 104.9 158.17 102.286 171.242C95.7856 203.742 123.286 210.242 125.286 213.242C127.286 216.242 107.786 250.242 102.286 258.742C97.8856 265.542 108.452 312.908 114.286 335.742L145.286 369.742C137.619 413.575 110.686 493.542 64.2858 462.742C6.28583 424.242 52.7858 418.742 68.2858 407.242C83.7858 395.742 94.7856 362.742 75.2856 348.242C59.6856 336.642 68.7856 286.408 75.2856 262.742C90.2856 254.742 115.886 234.642 98.2856 218.242Z" fill="white"/>
<path opacity="0.38" d="M382.861 387.703C368.775 374.631 362.053 360.603 377.099 348.487L390.094 342.792C391.441 340.65 392.521 340.733 393.105 341.473L390.094 342.792C388.731 344.958 387.095 349.398 385.422 357.733C381.26 378.457 398.867 382.602 400.147 384.515C401.428 386.428 388.943 408.108 385.422 413.528C382.605 417.864 389.37 448.068 393.105 462.627L412.952 484.308C408.044 512.258 390.8 563.249 361.093 543.609C323.958 519.06 353.73 515.553 363.654 508.22C373.577 500.887 380.62 479.844 368.135 470.598C358.147 463.201 363.974 431.17 368.135 416.078C377.739 410.977 394.129 398.16 382.861 387.703Z" fill="white"/>
<path opacity="0.38" d="M378.861 149.703C364.775 136.631 358.053 122.603 373.099 110.487L386.094 104.792C387.441 102.65 388.521 102.733 389.105 103.473L386.094 104.792C384.731 106.958 383.095 111.398 381.422 119.733C377.26 140.457 394.867 144.602 396.147 146.515C397.428 148.428 384.943 170.108 381.422 175.528C378.605 179.864 385.37 210.068 389.105 224.627L408.952 246.308C404.044 274.258 386.8 325.249 357.093 305.609C319.958 281.06 349.73 277.553 359.654 270.22C369.577 262.887 376.62 241.844 364.135 232.598C354.147 225.201 359.974 193.17 364.135 178.078C373.739 172.977 390.129 160.16 378.861 149.703Z" fill="white"/>
<path opacity="0.38" d="M53.8607 408.703C39.7754 395.631 33.0528 381.603 48.0985 369.487L61.0938 363.792C62.4412 361.65 63.5209 361.733 64.1046 362.473L61.0938 363.792C59.7314 365.958 58.0954 370.398 56.4217 378.733C52.2601 399.457 69.8668 403.602 71.1473 405.515C72.4278 407.428 59.943 429.108 56.4217 434.528C53.6046 438.864 60.3699 469.068 64.1046 483.627L83.9521 505.308C79.0437 533.258 61.7999 584.249 32.0926 564.609C-5.04151 540.06 24.7298 536.553 34.6536 529.22C44.5773 521.887 51.6199 500.844 39.1351 491.598C29.1473 484.201 34.9735 452.17 39.1351 437.078C48.7388 431.977 65.129 419.16 53.8607 408.703Z" fill="white"/>
<path opacity="0.38" d="M66.3485 232.641C47.3471 235.508 32.1869 232.021 32.0908 212.704L35.7375 198.992C34.9022 196.603 35.64 195.811 36.5823 195.815L35.7375 198.992C36.5819 201.407 39.0343 205.454 44.5088 211.958C58.1206 228.13 72.3359 216.945 74.63 217.136C76.924 217.327 86.0959 240.603 88.1395 246.735C89.7744 251.64 117.61 265.176 131.323 271.331L160.648 269.323C179.445 290.583 208.571 335.85 174.697 346.839C132.354 360.576 148.168 335.109 148.619 322.778C149.07 310.447 137.005 291.825 121.993 295.824C109.983 299.024 88.5665 274.503 79.3594 261.843C81.3562 251.153 81.5496 230.347 66.3485 232.641Z" fill="white"/>
<rect x="76.9521" y="434" width="293" height="278" fill="url(#paint0_linear_58_163)"/>
<ellipse cx="223.452" cy="450" rx="146.5" ry="39" fill="#A5197E"/>
<ellipse cx="223.452" cy="439" rx="146.5" ry="39" fill="url(#paint1_linear_58_163)"/>
<path d="M66.7573 380.5C50.3573 351.3 90.9239 232.667 113.257 177C116.924 216.5 124.257 296.5 124.257 300.5C124.257 304.5 138.257 375.833 145.257 411C125.924 413 83.1573 409.7 66.7573 380.5Z" fill="#464646"/>
<path d="M392.453 372.5C408.853 343.3 368.286 224.667 345.953 169C342.286 208.5 334.953 288.5 334.953 292.5C334.953 296.5 320.953 367.833 313.953 403C333.286 405 376.053 401.7 392.453 372.5Z" fill="#464646"/>
<ellipse cx="223.952" cy="438" rx="108" ry="29" fill="#A5197E"/>
<path d="M373.452 261.49C397.873 388.676 320.494 447 230.896 447C141.297 447 77.4526 393 110.952 239.5C120.452 167 148.776 72.3896 268.876 108.716C358.467 101.935 332.98 148.918 373.452 261.49Z" fill="#FFA680"/>
<path d="M278.972 526.347C315.392 530.579 344.351 499.793 354.452 483.5V701.5L278.972 526.347C278.136 526.25 277.296 526.135 276.452 526C238.852 520 260.786 519.833 276.452 520.5L278.972 526.347Z" fill="#D9D9D9" fill-opacity="0.26"/>
<path opacity="0.58" d="M115.952 282.5C109.952 279.7 103.119 273 100.452 270L87.9521 259.5L187.452 203L185.452 325V354.5C180.252 352.9 172.619 337.5 169.452 330C164.554 323.266 163.258 309.972 163.945 294.5H161.452C154.252 294.5 144.452 268.5 140.452 255.5L138.452 294.5C133.452 291.667 121.952 285.3 115.952 282.5Z" fill="#FF4545"/>
<path opacity="0.54" d="M182.952 305.731C193.813 302.916 217.861 298.974 227.169 305.731C238.806 314.179 189.934 316.592 182.952 305.731Z" fill="#FF4545"/>
<path d="M263.766 121.83C265.284 151.299 255.023 202.28 202.452 222.946C144.452 245.746 111.285 248.446 101.952 246.946C110.785 175.779 155.352 47.5457 262.952 103.946C291.285 89.2791 353.552 89 359.952 211C360.896 229 348.952 218.477 342.452 217.5C314.772 213.34 271.763 187.257 263.766 121.83Z" fill="#464646"/>
<path opacity="0.54" d="M307.952 305.731C318.813 302.916 342.861 298.974 352.169 305.731C363.806 314.179 314.934 316.592 307.952 305.731Z" fill="#FF4545"/>
<path d="M173.515 204.5C169.74 166.284 167.619 173 196.952 137C181.452 123.5 169.452 96.0001 152.452 177C138.852 241.8 143.681 286 166.014 288.5C166.014 247 177.515 245 173.515 204.5Z" fill="#464646"/>
<path d="M358.391 236.097C362.165 197.881 325.286 196 295.953 160C311.453 146.5 358.953 116.5 375.953 197.5C389.553 262.3 388.224 317.597 365.891 320.097C365.891 278.597 354.39 276.597 358.391 236.097Z" fill="#464646"/>
<path d="M147.589 210.097C143.814 171.881 141.693 178.597 171.026 142.597C155.527 129.097 143.527 101.597 126.527 182.597C112.927 247.397 117.755 291.597 140.089 294.097C140.089 252.597 151.589 250.597 147.589 210.097Z" fill="#464646"/>
<path d="M140.452 199C136.677 160.784 141.119 183 170.452 147C339.952 91.5 122.527 81.597 105.527 162.597C91.9266 227.397 96.7554 271.597 119.089 274.097C119.089 232.597 144.452 239.5 140.452 199Z" fill="#464646"/>
<path d="M146.452 102L182.452 111.5L189.452 148.5C172.619 166.333 133.052 198.6 109.452 185C79.9519 168 103.452 157 95.9521 148.5C89.9521 141.7 127.119 114.667 146.452 102Z" fill="#464646"/>
<path d="M254.952 264C254.952 281.121 241.073 295 223.952 295C206.831 295 192.952 281.121 192.952 264C192.952 246.879 206.831 233 223.952 233C241.073 233 254.952 246.879 254.952 264ZM198.143 264C198.143 278.254 209.698 289.809 223.952 289.809C238.206 289.809 249.762 278.254 249.762 264C249.762 249.746 238.206 238.191 223.952 238.191C209.698 238.191 198.143 249.746 198.143 264Z" fill="#464646"/>
<path d="M279.952 268.5C276.752 264.1 261.285 266.667 253.952 268.5L252.452 265C262.052 260.2 274.119 261.667 278.952 263L279.952 268.5Z" fill="#464646"/>
<path d="M338.952 263C338.952 280.121 325.073 294 307.952 294C290.831 294 276.952 280.121 276.952 263C276.952 245.879 290.831 232 307.952 232C325.073 232 338.952 245.879 338.952 263ZM282.501 263C282.501 277.056 293.896 288.451 307.952 288.451C322.008 288.451 333.403 277.056 333.403 263C333.403 248.944 322.008 237.549 307.952 237.549C293.896 237.549 282.501 248.944 282.501 263Z" fill="#464646"/>
<path d="M207.981 265L205.952 261.088C214.068 256.82 232.667 257.887 240.952 258.954L239.938 265C231.416 259.31 215.083 262.629 207.981 265Z" fill="#464646"/>
<path d="M291.981 265L289.952 261.088C298.068 256.82 316.667 257.887 324.952 258.954L323.938 265C315.416 259.31 299.083 262.629 291.981 265Z" fill="#464646"/>
<path d="M261.952 307C266.619 305.833 276.952 304.2 280.952 307C285.952 310.5 264.952 311.5 261.952 307Z" fill="#FF4545"/>
<path d="M243.904 227.313C236.704 221.313 214.904 224.813 204.904 227.313C201.304 228.513 201.737 229.48 202.404 229.813C203.237 231.98 201.19 232.799 204.904 231.313C207.404 230.313 221.237 226.98 229.404 227.313C237.237 229.813 251.104 233.313 243.904 227.313Z" fill="#464646"/>
<path d="M287.962 226.313C295.162 220.313 316.962 223.813 326.962 226.313C330.562 227.513 330.129 228.48 329.462 228.813C328.629 230.98 330.676 231.799 326.962 230.313C324.462 229.313 310.629 225.98 302.462 226.313C294.629 228.813 280.762 232.313 287.962 226.313Z" fill="#464646"/>
<path d="M103.452 289.009L107.452 262.009C104.952 257.175 99.6521 247.409 98.4521 247.009C97.2521 246.609 88.2855 260.175 83.9521 267.009L103.452 289.009Z" fill="#464646"/>
<path opacity="0.58" d="M164.452 432C145.652 414.4 128.286 325.667 121.952 283.5L106.452 269.5L103.452 285.5C98.2524 322.7 103.619 350.667 106.952 360C116.552 408.4 149.286 428.167 164.452 432Z" fill="#FF4545"/>
<path d="M341.046 257C344.821 218.784 299.286 163.5 269.953 127.5C285.452 114 300.046 111.662 341.046 177.5C376.047 233.704 363.379 339 341.046 341.5C341.046 300 337.046 297.5 341.046 257Z" fill="url(#paint2_linear_58_163)"/>
<path d="M194.014 262C190.24 223.784 210.775 150.338 240.108 114.338C224.608 100.838 200.608 97.8382 183.608 178.838C170.008 243.638 171.681 344 194.014 346.5C194.014 305 198.015 302.5 194.014 262Z" fill="url(#paint3_linear_58_163)"/>
</g>
<defs>
<linearGradient id="paint0_linear_58_163" x1="206.452" y1="819" x2="233.452" y2="443" gradientUnits="userSpaceOnUse">
<stop stop-color="#EB0004"/>
<stop offset="1" stop-color="#FF63C1"/>
</linearGradient>
<linearGradient id="paint1_linear_58_163" x1="76.9521" y1="439" x2="369.952" y2="439" gradientUnits="userSpaceOnUse">
<stop stop-color="#C20F9E"/>
<stop offset="1" stop-color="#FF6BDD"/>
</linearGradient>
<linearGradient id="paint2_linear_58_163" x1="327.53" y1="102" x2="327.53" y2="341.5" gradientUnits="userSpaceOnUse">
<stop stop-color="#464646"/>
<stop offset="1" stop-color="#2AAFE4"/>
</linearGradient>
<linearGradient id="paint3_linear_58_163" x1="207.53" y1="107" x2="207.53" y2="346.5" gradientUnits="userSpaceOnUse">
<stop stop-color="#464646"/>
<stop offset="1" stop-color="#13B7F8"/>
</linearGradient>
<clipPath id="clip0_58_163">
<rect width="430.953" height="711.715" fill="white" transform="translate(0.952637)"/>
</clipPath>
</defs>
</svg>
