<svg width="431" height="712" viewBox="0 0 431 712" fill="none" xmlns="http://www.w3.org/2000/svg">
<rect x="87" y="433.715" width="293" height="278" fill="url(#paint0_linear_44_218)"/>
<ellipse cx="233.5" cy="449.715" rx="146.5" ry="39" fill="#D56127"/>
<ellipse cx="233.5" cy="438.715" rx="146.5" ry="39" fill="url(#paint1_linear_44_218)"/>
<ellipse cx="234" cy="437.715" rx="108" ry="29" fill="#D56127"/>
<path d="M403.175 261.206C427.596 388.391 330.542 446.715 240.943 446.715C151.345 446.715 11.3971 397.311 78.7113 261.206C74.0754 170.914 158.823 72.1051 278.924 108.432C368.514 101.651 362.703 148.634 403.175 261.206Z" fill="#FFA680"/>
<path d="M289.02 526.063C325.44 530.294 354.399 499.508 364.5 483.215V701.215L289.02 526.063C288.184 525.966 287.344 525.85 286.5 525.715C248.9 519.715 270.833 519.549 286.5 520.215L289.02 526.063Z" fill="#D9D9D9" fill-opacity="0.26"/>
<path d="M189 163.715L133 182.715L123.5 186.715L145.5 189.715L179 197.215L136.5 195.215C137 199.215 80.9998 229.715 80.4998 227.215C80.0998 225.215 86.3331 206.382 89.4998 197.215L87.4998 191.215L117.5 156.715L220 128.715L361.5 139.215L370.5 163.715L353.5 159.215C356.166 161.715 361.9 166.915 363.5 167.715C365.1 168.515 347.833 172.049 339 173.715C327.8 176.115 280.666 156.715 258.5 146.715L189 163.715Z" fill="#EB5E51"/>
<path d="M58.4371 217.945C67.4529 207.323 66.0535 186.334 63.5 174.715L75.5 168.215L145 152.715C229.5 127.215 136.3 176.915 137.5 185.715C138.7 194.515 106.5 210.715 85 216.215C89.5 212.382 100.1 203.215 106.5 197.215C112.9 191.215 111.333 184.882 111.5 179.215C105.667 179.882 97.7 176.915 98.5 185.715C99.1486 192.85 76.3978 207.696 58.4371 217.945C55.6839 221.189 51.9594 223.467 47 224.215C50.3122 222.48 54.2441 220.338 58.4371 217.945Z" fill="#565656"/>
<path d="M86 261.215L79.5 240.215C79.8333 247.215 80.1 261.215 78.5 261.215C76.9 261.215 69.8333 281.215 66.5 291.215C61.7 298.015 61.1666 327.382 61.5 341.215C66.8333 354.715 78 382.315 80 384.715C82 387.115 96.1666 400.049 103 406.215L75.5 365.215L66.5 317.715L72.5 293.215L86 261.215Z" fill="white"/>
<path d="M387.556 161.163C371.501 152.433 367.163 104.321 366.682 90.4839L352.426 115.303L281.254 117.554C282.84 125.75 242.476 125.393 243.5 134.215C244.524 143.037 332.955 164.172 355.147 164.159C349.938 161.613 337.771 155.556 330.051 151.341C348.532 155.213 373.278 158.53 387.556 161.163C389.507 162.224 391.632 162.703 393.944 162.468C392.186 162.054 390.028 161.619 387.556 161.163Z" fill="#565656"/>
<path d="M408 119.715C392.4 107.715 179.167 156.382 74.5 182.215C26 182.215 49 165.715 45.5 151.715C42 137.715 408 71.2152 426 78.7152C440.4 84.7152 420 108.548 408 119.715Z" fill="#00AEFF"/>
<path d="M89.5 144.715L111.5 136.715L304.5 102.715L330 92.2153H345.5L339.5 106.715L242 127.715L89.5 151.215V144.715Z" fill="#1795CF"/>
<path d="M121.5 44.7152C129.1 51.1152 112 113.382 102.5 143.715C193.333 131.882 366.1 105.515 330.5 94.7152C286 81.2152 292 2.71516 281 0.215157C270 -2.28484 233.5 17.7152 217.5 23.2152C201.5 28.7152 112 36.7152 121.5 44.7152Z" fill="#25FBFF"/>
<ellipse cx="70.575" cy="363.449" rx="17.9856" ry="69.5" transform="rotate(115.063 70.575 363.449)" fill="white"/>
<ellipse cx="57.3928" cy="363.69" rx="3.92276" ry="15.1584" transform="rotate(115.063 57.3928 363.69)" fill="#FF0606"/>
<ellipse cx="99.5157" cy="379.401" rx="3.92276" ry="15.1584" transform="rotate(96.7829 99.5157 379.401)" fill="#0665FF"/>
<ellipse cx="24.7269" cy="341.869" rx="4.15067" ry="10.574" transform="rotate(122.256 24.7269 341.869)" fill="#FFB806"/>
<ellipse cx="101" cy="364.361" rx="1.30049" ry="7.97914" transform="rotate(117.087 101 364.361)" fill="#FF18E4"/>
<ellipse cx="79.6965" cy="351.506" rx="1.30049" ry="11.3931" transform="rotate(117.087 79.6965 351.506)" fill="#0665FF"/>
<ellipse cx="48.7358" cy="340.061" rx="1.30049" ry="11.3931" transform="rotate(102.342 48.7358 340.061)" fill="#06FF1B"/>
<rect x="395.159" y="351.715" width="10" height="76" transform="rotate(51.1148 395.159 351.715)" fill="white"/>
<path d="M183 204.215H131.5C124.667 215.715 125.3 237.715 154.5 241.715C183.7 245.715 183.334 219.049 183 204.215Z" fill="white"/>
<path d="M284 204.715H235C228.167 216.215 229.566 240.215 258.766 244.215C287.966 248.215 284.333 219.549 284 204.715Z" fill="white"/>
<path d="M163.5 241.215C157.1 237.215 157.5 214.882 158.5 204.215H182.5C185.5 230.215 171.5 246.215 163.5 241.215Z" fill="#565656"/>
<path d="M264.5 243.715C257.201 241.795 258.572 215.382 259.572 204.715H283.573C289.5 236.715 274 246.215 264.5 243.715Z" fill="#565656"/>
<path d="M158 261.287C174.527 253.728 210.763 242.199 223.486 256.562C239.39 274.517 212.26 251.837 158 261.287Z" fill="#FF5B5B"/>
<path d="M143 312.215C165.833 317.049 213.8 325.015 223 318.215" stroke="#D24C4C"/>
<path d="M236.5 193.715L232.5 183.715L274.5 179.215C279.833 179.549 291.3 180.015 294.5 179.215C297.7 178.415 298.167 185.549 298 189.215C293.333 189.715 283.2 190.415 280 189.215C276.8 188.015 249.667 191.715 236.5 193.715Z" fill="#565656"/>
<path d="M181.529 197.277L185.529 187.277L143.529 182.777C138.196 183.111 126.729 183.577 123.529 182.777C120.329 181.977 119.863 189.111 120.029 192.777C124.696 193.277 134.829 193.977 138.029 192.777C141.229 191.577 168.363 195.277 181.529 197.277Z" fill="#565656"/>
<path d="M398.5 333.215C394.5 332.415 391.833 349.549 391 358.215L394.5 362.215C398.5 360.882 407.8 357.315 413 353.715C418.2 350.115 415.167 336.215 413 329.715C409 339.715 403.5 334.215 398.5 333.215Z" fill="white"/>
<path d="M161.5 340.215L150 334.715L158 346.715H178L199 336.715L161.5 340.215Z" fill="#FF5B5B"/>
<path d="M79 234.215V229.215L188 227.215C189.2 230.415 175.5 241.215 168.5 246.215H149.5C147.1 246.215 136.167 238.215 131 234.215H79Z" fill="#7F79FF"/>
<path d="M393.5 231.715V226.715H232.074C230.874 229.915 244.574 240.715 251.574 245.715H270.574C272.974 245.715 283.908 237.715 289.074 233.715L393.5 231.715Z" fill="#7F79FF"/>
<path d="M233.5 227.215C214.3 214.815 194.833 222.049 187.5 227.215V229.215C210.5 216.215 232.5 229.215 233.5 229.215C234.3 229.215 233.833 227.882 233.5 227.215Z" fill="#7F79FF"/>
<path d="M150.5 242.715L133.5 231.215L183 229.715L166 243.715L150.5 242.715Z" fill="white"/>
<path d="M269.5 242.715L286.5 231.215L237 229.715L254 243.715L269.5 242.715Z" fill="white"/>
<path d="M53 168.215C47.4 166.215 47.3333 156.715 45.5 151.215C46 152.715 43.5 164.882 42.5 171.215C42.5 182.415 64.5 183.215 75 181.715L133 168.215L101.5 172.215H88C78.6667 171.715 58.6 170.215 53 168.215Z" fill="#CAFAFF"/>
<path opacity="0.32" d="M231 38.7153C244.2 36.7153 263.167 23.5487 271 17.2153C262.5 48.2153 313 98.2153 315 101.715C317 105.215 238.5 112.215 249 101.715C259.5 91.2153 214.5 41.2153 231 38.7153Z" fill="#00AEFF"/>
<defs>
<linearGradient id="paint0_linear_44_218" x1="216.5" y1="818.715" x2="243.5" y2="442.715" gradientUnits="userSpaceOnUse">
<stop stop-color="#EB8100"/>
<stop offset="1" stop-color="#FF6363"/>
</linearGradient>
<linearGradient id="paint1_linear_44_218" x1="87" y1="438.715" x2="380" y2="438.715" gradientUnits="userSpaceOnUse">
<stop stop-color="#FF5500"/>
<stop offset="1" stop-color="#FF9D6B"/>
</linearGradient>
</defs>
</svg>
