<svg width="431" height="712" viewBox="0 0 431 712" fill="none" xmlns="http://www.w3.org/2000/svg">
<g clip-path="url(#clip0_58_122)">
<path d="M28.729 214.077L83.119 168.2L213.182 514.877L197.574 538.998L28.729 214.077Z" fill="white" fill-opacity="0.63"/>
<path d="M402.365 229.684L347.975 183.808L217.912 530.485L233.519 554.605L402.365 229.684Z" fill="white" fill-opacity="0.63"/>
<path d="M24.9458 330.897L79.3358 285.02L209.399 631.697L193.791 655.818L24.9458 330.897Z" fill="white" fill-opacity="0.63"/>
<path d="M406.148 346.504L351.758 300.628L221.695 647.305L237.303 671.425L406.148 346.504Z" fill="white" fill-opacity="0.63"/>
<path d="M37.2427 460.487L91.6327 414.61L221.696 761.287L206.088 785.408L37.2427 460.487Z" fill="white" fill-opacity="0.63"/>
<path d="M393.852 476.095L339.462 430.218L209.399 776.895L225.006 801.016L393.852 476.095Z" fill="white" fill-opacity="0.63"/>
<path d="M44.8096 521.971L99.1995 476.094L229.263 822.771L213.655 846.892L44.8096 521.971Z" fill="white" fill-opacity="0.63"/>
<path d="M386.284 537.579L331.894 491.702L201.831 838.379L217.439 862.5L386.284 537.579Z" fill="white" fill-opacity="0.63"/>
<rect x="78.8628" y="460.691" width="277.152" height="262.964" fill="url(#paint0_linear_58_122)"/>
<ellipse cx="217.439" cy="475.825" rx="138.576" ry="36.8906" fill="#D56127"/>
<ellipse cx="217.439" cy="465.42" rx="138.576" ry="36.8906" fill="url(#paint1_linear_58_122)"/>
<ellipse cx="217.912" cy="464.474" rx="102.159" ry="27.4315" fill="#D56127"/>
<path d="M269.956 548.043C304.406 552.046 331.799 522.925 341.354 507.513V713.722L269.956 548.043C269.165 547.951 268.371 547.842 267.573 547.715C232.006 542.039 252.753 541.882 267.573 542.512L269.956 548.043Z" fill="#D9D9D9" fill-opacity="0.26"/>
<path d="M366.236 314.725C386.965 422.686 304.581 472.194 228.525 472.194C152.47 472.194 33.6748 430.257 90.8145 314.725C86.8793 238.08 158.818 154.206 260.765 185.042C336.814 179.286 331.881 219.168 366.236 314.725Z" fill="#FFA680"/>
<path d="M184.432 231.97L136.897 248.098L128.832 251.493L147.507 254.04L175.944 260.406L139.868 258.708C140.292 262.104 92.7564 287.994 92.332 285.871C91.9925 284.174 97.2836 268.187 99.9716 260.406L98.2739 255.313L123.739 226.028L210.747 202.26L330.859 211.173L338.498 231.97L324.068 228.15C326.332 230.272 331.198 234.686 332.556 235.365C333.915 236.044 319.258 239.043 311.76 240.458C302.253 242.495 262.243 226.028 243.427 217.539L184.432 231.97Z" fill="#EB5E51"/>
<path d="M73.6044 278.003C81.2575 268.985 80.0696 251.169 77.902 241.307L88.0882 235.789L147.083 222.632C218.811 200.986 139.698 243.174 140.717 250.644C141.736 258.114 114.403 271.865 96.1523 276.534C99.9721 273.28 108.97 265.499 114.403 260.406C119.835 255.313 118.505 249.937 118.647 245.126C113.695 245.692 106.933 243.174 107.612 250.644C108.162 256.7 88.8503 269.303 73.6044 278.003C71.2673 280.756 68.1058 282.689 63.896 283.325C66.7076 281.852 70.0452 280.034 73.6044 278.003Z" fill="#565656"/>
<path d="M97.001 314.732L91.4835 296.906C91.7664 302.848 91.9928 314.732 90.6346 314.732C89.2765 314.732 83.2779 331.709 80.4484 340.198C76.3739 345.97 75.9212 370.898 76.2042 382.64C80.7314 394.1 90.2102 417.528 91.9079 419.565C93.6056 421.603 105.631 432.581 111.431 437.816L88.0881 403.013L80.4484 362.692L85.5415 341.896L97.001 314.732Z" fill="white"/>
<path d="M352.977 229.803C339.349 222.393 335.666 181.553 335.258 169.807L323.156 190.875L262.742 192.786C264.088 199.743 229.826 199.44 230.695 206.929C231.564 214.417 306.629 232.357 325.467 232.346C321.045 230.186 310.717 225.044 304.163 221.466C319.851 224.752 340.857 227.568 352.977 229.803C354.633 230.704 356.437 231.111 358.399 230.911C356.907 230.56 355.075 230.19 352.977 229.803Z" fill="#565656"/>
<path d="M370.331 194.62C357.089 184.434 176.086 225.745 87.2398 247.673C46.0707 247.673 65.5942 233.667 62.6232 221.784C59.6522 209.9 370.331 153.451 385.61 159.818C397.834 164.911 380.517 185.142 370.331 194.62Z" fill="#00AEFF"/>
<path d="M99.9722 215.841L118.647 209.051L282.475 180.19L304.121 171.277H317.278L312.185 183.585L229.422 201.411L99.9722 221.359V215.841Z" fill="#1795CF"/>
<path d="M127.135 130.956C133.587 136.389 119.071 189.244 111.007 214.993C188.111 204.948 334.764 182.567 304.545 173.399C266.771 161.939 271.864 95.3048 262.527 93.1826C253.19 91.0605 222.207 108.038 208.625 112.706C195.043 117.375 119.071 124.166 127.135 130.956Z" fill="#25FBFF"/>
<ellipse cx="109.734" cy="402.287" rx="1.10392" ry="6.77309" transform="rotate(117.087 109.734 402.287)" fill="#FF18E4"/>
<ellipse cx="83.9079" cy="401.513" rx="15.267" ry="58.995" transform="rotate(115.063 83.9079 401.513)" fill="white"/>
<ellipse cx="72.718" cy="401.718" rx="3.32984" ry="12.8672" transform="rotate(115.063 72.718 401.718)" fill="#FF0606"/>
<ellipse cx="108.474" cy="415.054" rx="3.32984" ry="12.8672" transform="rotate(96.7829 108.474 415.054)" fill="#0665FF"/>
<ellipse cx="44.9895" cy="383.195" rx="3.52329" ry="8.97576" transform="rotate(122.256 44.9895 383.195)" fill="#FFB806"/>
<ellipse cx="91.6507" cy="391.376" rx="1.10392" ry="9.67105" transform="rotate(117.087 91.6507 391.376)" fill="#0665FF"/>
<ellipse cx="65.3697" cy="381.66" rx="1.10392" ry="9.67105" transform="rotate(102.342 65.3697 381.66)" fill="#06FF1B"/>
<rect x="359.431" y="391.553" width="8.4885" height="64.5126" transform="rotate(51.1148 359.431 391.553)" fill="white"/>
<path d="M179.34 266.348H135.624C129.823 276.11 130.361 294.785 155.147 298.18C179.934 301.575 179.623 278.939 179.34 266.348Z" fill="white"/>
<path d="M265.073 266.773H223.48C217.679 276.534 218.867 296.907 243.653 300.302C268.44 303.698 265.356 279.364 265.073 266.773Z" fill="white"/>
<path d="M162.787 297.756C157.354 294.36 157.694 275.403 158.543 266.348H178.915C181.462 288.418 169.578 302 162.787 297.756Z" fill="#565656"/>
<path d="M248.521 299.878C242.326 298.247 243.49 275.827 244.338 266.773H264.711C269.742 293.936 256.585 302 248.521 299.878Z" fill="#565656"/>
<path d="M158.118 314.793C172.147 308.376 202.906 298.591 213.706 310.783C227.206 326.023 204.177 306.772 158.118 314.793Z" fill="#FF5B5B"/>
<path d="M145.385 358.024C164.767 362.127 205.484 368.889 213.293 363.117" stroke="#D24C4C"/>
<path d="M224.753 257.435L221.357 248.947L257.009 245.127C261.536 245.41 271.27 245.806 273.986 245.127C276.702 244.448 277.099 250.503 276.957 253.615C272.996 254.04 264.394 254.634 261.678 253.615C258.961 252.597 235.929 255.738 224.753 257.435Z" fill="#565656"/>
<path d="M178.091 260.459L181.487 251.97L145.835 248.151C141.308 248.434 131.574 248.83 128.858 248.151C126.142 247.471 125.746 253.527 125.887 256.639C129.848 257.063 138.45 257.658 141.166 256.639C143.883 255.62 166.915 258.761 178.091 260.459Z" fill="#565656"/>
<path d="M362.266 375.85C358.871 375.171 356.607 389.714 355.9 397.071L358.871 400.467C362.266 399.335 370.161 396.307 374.575 393.251C378.989 390.195 376.414 378.396 374.575 372.879C371.179 381.367 366.511 376.699 362.266 375.85Z" fill="white"/>
<path d="M161.089 381.792L151.328 377.123L158.118 387.309H175.095L192.921 378.821L161.089 381.792Z" fill="#FF5B5B"/>
<path d="M91.0591 291.814V287.57L183.584 285.872C184.602 288.588 172.973 297.756 167.031 302H150.903C148.866 302 139.585 295.209 135.199 291.814H91.0591Z" fill="#7F79FF"/>
<path d="M358.023 289.691V285.447H220.997C219.978 288.163 231.607 297.331 237.549 301.575H253.677C255.715 301.575 264.995 294.784 269.381 291.389L358.023 289.691Z" fill="#7F79FF"/>
<path d="M222.207 285.872C205.909 275.346 189.385 281.486 183.16 285.872V287.569C202.683 276.534 221.358 287.569 222.207 287.569C222.886 287.569 222.49 286.438 222.207 285.872Z" fill="#7F79FF"/>
<path d="M151.752 299.029L137.322 289.267L179.34 287.994L164.909 299.878L151.752 299.029Z" fill="white"/>
<path d="M252.765 299.029L267.196 289.267L225.178 287.994L239.608 299.878L252.765 299.029Z" fill="white"/>
<path d="M68.9891 235.79C64.2355 234.092 64.1789 226.028 62.6227 221.359C63.0471 222.632 60.925 232.96 60.0762 238.336C60.0762 247.843 78.7509 248.522 87.6638 247.249L136.897 235.79L110.158 239.185H98.6988C90.7762 238.761 73.7427 237.487 68.9891 235.79Z" fill="#CAFAFF"/>
<path opacity="0.32" d="M220.085 125.863C231.29 124.166 247.389 112.989 254.039 107.613C246.823 133.927 289.691 176.37 291.388 179.341C293.086 182.312 226.451 188.254 235.364 179.341C244.277 170.428 206.079 127.985 220.085 125.863Z" fill="#00AEFF"/>
</g>
<defs>
<linearGradient id="paint0_linear_58_122" x1="201.358" y1="824.867" x2="226.898" y2="469.204" gradientUnits="userSpaceOnUse">
<stop stop-color="#EB8100"/>
<stop offset="1" stop-color="#FF6363"/>
</linearGradient>
<linearGradient id="paint1_linear_58_122" x1="78.8628" y1="465.42" x2="356.015" y2="465.42" gradientUnits="userSpaceOnUse">
<stop stop-color="#FF5500"/>
<stop offset="1" stop-color="#FF9D6B"/>
</linearGradient>
<clipPath id="clip0_58_122">
<rect width="430.953" height="711.715" fill="white"/>
</clipPath>
</defs>
</svg>
