<svg width="386" height="346" viewBox="0 0 386 346" fill="none" xmlns="http://www.w3.org/2000/svg">
<ellipse cx="193" cy="14" rx="193" ry="14" transform="matrix(-1 0 0 1 386 318)" fill="#45A5FF"/>
<path d="M348 326.5H318L204.5 310L84 326.5C76.1667 325.333 60.7 323.7 61.5 326.5C62.3 329.3 59.1667 333.333 57.5 335H73L125 338C133 337 150 335 154 335C158 335 167.333 337 171.5 338C198.833 337 252.1 335 246.5 335H325L348 326.5Z" fill="white"/>
<path d="M132 313.5H269C40.8329 222.433 176.83 95.8456 181.134 46.5569L137.707 16.0449C127.378 31.0662 81.1396 225.093 132 313.5Z" fill="url(#paint0_linear_38_452)"/>
<path d="M82.1726 23.4776L76.2664 10.5649L139.63 0.0702438L155.41 34.0425C151.63 29.347 111.31 56.3463 91.6227 70.4328C85.0077 63.8591 44.7664 127.17 25.4726 159.648L21.9288 125.605C17.2038 106.823 47.5226 51.2595 63.2726 25.8254L82.1726 23.4776Z" fill="url(#paint1_linear_38_452)"/>
<path d="M210.196 26.6866L216.103 13.7739L152.739 3.27923L136.959 37.2515C140.739 32.556 181.059 59.5553 200.746 73.6418C207.361 67.0681 247.602 130.379 266.896 162.857L270.44 128.814C275.165 110.032 244.846 54.4684 229.096 29.0344L210.196 26.6866Z" fill="url(#paint2_linear_38_452)"/>
<path d="M199.534 34.0955L154.608 18.8528C167.979 25.4045 194.801 38.7486 195.122 39.7113C195.391 40.5177 199.243 51.1373 202.059 58.8865C202.498 60.5691 203.05 61.9857 203.545 62.9765C203.111 61.7826 202.604 60.3884 202.059 58.8865C200.957 54.6654 200.563 48.7702 203.545 43.7225C208.76 34.8978 217.585 54.954 213.172 58.5642C208.76 62.1743 219.991 81.8294 217.585 77.0159C215.659 73.1651 220.794 66.0518 223.602 62.9765C229.618 70.7316 241.01 87.5254 238.443 92.6598C235.876 97.7942 238.443 104.694 240.048 107.501L243.658 101.886C249.755 98.6767 259.569 128.36 263.714 143.603C264.65 142.132 266.201 135.58 264.917 121.14C263.313 103.089 250.878 98.6767 249.274 94.2643C247.99 90.7344 257.296 94.398 262.11 96.671C257.43 93.3283 247.428 85.1186 244.861 79.0215C241.652 71.4002 229.217 60.9709 226.811 58.5642C224.885 56.6388 238.042 60.7035 244.861 62.9765C240.369 57.2003 228.816 53.617 223.602 52.5473C220.526 49.472 213.172 42.5994 208.359 39.7113C203.545 36.8232 220.259 36.3686 229.217 36.5023L199.534 34.0955Z" fill="#499A4D"/>
<path d="M63.9538 36.9034L93.6371 34.4966L127.332 22.4629L139.604 24.5518C141.886 24.6523 144.097 25.0058 146.184 25.6719L139.604 24.5518C121.27 23.7442 98.3348 39.2563 98.0494 40.1124C97.7806 40.9188 93.9281 51.5384 91.1125 59.2876C90.6731 60.9702 90.1212 62.3868 89.6258 63.3776C90.06 62.1837 90.5667 60.7895 91.1125 59.2876C92.2146 55.0665 92.6085 49.1713 89.6258 44.1236C84.4112 35.2989 75.5864 55.3551 79.9988 58.9653C84.4112 62.5754 73.1797 82.2305 75.5864 77.417C77.5118 73.5662 72.3774 66.4529 69.5696 63.3776C63.5527 71.1327 52.1607 87.9265 54.7279 93.0609C57.2951 98.1953 54.7279 105.095 53.1234 107.903L49.5133 102.287C43.4162 99.0778 33.602 128.761 29.4571 144.004C28.5211 142.533 26.9701 135.981 28.2537 121.541C29.8582 103.49 42.2931 99.0778 43.8976 94.6654C45.1812 91.1355 35.8751 94.7991 31.0616 97.0721C35.7414 93.7294 45.7427 85.5197 48.3099 79.4226C51.5189 71.8013 63.9538 61.372 66.3606 58.9653C68.286 57.0399 55.1291 61.1046 48.3099 63.3776C52.8025 57.6014 64.3549 54.0181 69.5696 52.9484C72.6449 49.8731 79.9988 43.0005 84.8123 40.1124C89.6258 37.2243 72.9123 36.7697 63.9538 36.9034Z" fill="#499A4D"/>
<path d="M262 311C228.306 304.903 150.939 297.436 125 237V131.5L154.817 44.926C145.724 41.8507 132.816 25.902 132 28.4999C118.5 71.5 105 158.531 105 163.5C105 183.794 108.88 279.538 128 313.5C156.346 318.581 295.695 317.097 262 311Z" fill="#8D5151"/>
<path d="M101.855 69.0196L92.8885 67.1062L132 27L168.044 29.0246C163.379 29.3205 136.813 65.3212 124.114 83.2845C116.445 84.5026 100.873 135.927 94.0451 161.487L80.7532 149.135C71.0368 144.004 80.4032 101.909 86.301 81.5029L101.855 69.0196Z" fill="url(#paint3_linear_38_452)"/>
<path d="M200.446 74.521L209.413 72.6077L158.056 29.6389L134.257 34.526C138.922 34.822 165.488 70.8226 178.188 88.7859C185.857 90.0041 201.429 141.429 208.256 166.988L221.548 154.637C231.265 149.505 221.898 107.41 216 87.0043L200.446 74.521Z" fill="url(#paint4_linear_38_452)"/>
<path d="M96.2405 78.9942L109.08 74.2013L117.564 59.9744L134.981 47.3329C120.373 59.9744 111.758 75.6544 111.736 76.1186C111.718 76.5074 111.341 81.6669 111.063 85.4324C111.079 86.2284 111.012 86.9215 110.917 87.42C110.96 86.8397 111.01 86.1623 111.063 85.4324C111.023 83.4356 110.46 80.7908 108.509 78.9439C105.096 75.7148 103.698 85.654 106.103 86.6883C108.508 87.7226 105.994 97.7879 106.457 95.3662C106.828 93.4288 103.665 90.9431 102.038 89.9425C100.344 94.1132 97.401 102.939 99.1796 104.876C100.958 106.814 100.685 110.174 100.326 111.612L98.025 109.594C94.9244 108.948 94.292 123.25 94.3634 130.481C93.7651 129.951 92.259 127.262 91.0213 120.744C89.474 112.596 94.4272 109.089 94.5856 106.945C94.7124 105.23 91.0508 108.013 89.2041 109.619C90.8578 107.559 94.2587 102.687 94.6327 99.6797C95.1001 95.921 99.3007 89.7658 100.065 88.4036C100.677 87.3139 95.3605 90.758 92.626 92.6163C93.8924 89.5085 98.5586 86.478 100.733 85.3513C101.71 83.6107 104.106 79.6602 105.876 77.7834C107.646 75.9066 100.19 77.8086 96.2405 78.9942Z" fill="#499A4D"/>
<path d="M204.558 79.7964L191.718 75.0036L183.234 60.7766L165.817 48.1351C180.425 60.7766 189.041 76.4566 189.062 76.9208C189.08 77.3096 189.458 82.4692 189.735 86.2347C189.719 87.0307 189.786 87.7237 189.882 88.2222C189.839 87.642 189.789 86.9645 189.735 86.2347C189.775 84.2378 190.338 81.5931 192.29 79.7461C195.702 76.5171 197.1 86.4563 194.696 87.4906C192.291 88.5249 194.805 98.5902 194.341 96.1684C193.97 94.2311 197.133 91.7454 198.761 90.7447C200.455 94.9154 203.397 103.741 201.619 105.679C199.84 107.616 200.114 110.976 200.473 112.414L202.774 110.396C205.874 109.75 206.506 124.052 206.435 131.283C207.033 130.754 208.539 128.064 209.777 121.546C211.324 113.398 206.371 109.891 206.213 107.747C206.086 106.032 209.748 108.815 211.594 110.421C209.941 108.361 206.54 103.489 206.166 100.482C205.698 96.7233 201.498 90.5681 200.733 89.2059C200.122 88.1161 205.438 91.5603 208.173 93.4186C206.906 90.3107 202.24 87.2802 200.065 86.1535C199.088 84.4129 196.692 80.4625 194.922 78.5857C193.153 76.7089 200.609 78.6108 204.558 79.7964Z" fill="#499A4D"/>
<path d="M329.5 331.5C286 288.5 173 228.3 69 331.5H329.5Z" fill="#FFD3A7"/>
<path d="M159 331.5C115.4 320.7 151.5 290 175 276C132.6 276 86.3333 313 68.5 331.5H159Z" fill="url(#paint5_linear_38_452)"/>
<ellipse cx="18" cy="19.5" rx="18" ry="19.5" transform="matrix(-0.97309 -0.230424 -0.230424 0.97309 254 272.295)" fill="url(#paint6_linear_38_452)"/>
<ellipse cx="6" cy="1.5" rx="6" ry="1.5" transform="matrix(-0.960858 -0.277041 -0.277041 0.960858 243 271.324)" fill="#368D3A"/>
<path d="M258.5 270C255.3 263.6 243.167 267.333 237.5 270C237.696 269.804 235.989 270.88 238.5 270.5C241.105 270.106 247.963 268.255 250 268C251.2 267.2 254.833 269 256.5 270H258.5Z" fill="#AB6824"/>
<path d="M231.5 302C233.5 304.4 245.333 301.667 251 300C242 304.667 223.6 313.9 222 313.5C220.4 313.1 208.667 310.667 203 309.5L214 292.5L220.5 298C223.333 298.333 229.5 299.6 231.5 302Z" fill="#FFD3A7"/>
<defs>
<linearGradient id="paint0_linear_38_452" x1="188.784" y1="16.0449" x2="188.784" y2="313.5" gradientUnits="userSpaceOnUse">
<stop stop-color="#BD8771"/>
<stop offset="1" stop-color="#BC6847"/>
</linearGradient>
<linearGradient id="paint1_linear_38_452" x1="88.4224" y1="0" x2="88.4224" y2="159.648" gradientUnits="userSpaceOnUse">
<stop stop-color="#62C943"/>
<stop offset="1" stop-color="#ACE223"/>
</linearGradient>
<linearGradient id="paint2_linear_38_452" x1="203.946" y1="3.20898" x2="412.933" y2="256.72" gradientUnits="userSpaceOnUse">
<stop stop-color="#62C943"/>
<stop offset="1" stop-color="#FFFF00"/>
</linearGradient>
<linearGradient id="paint3_linear_38_452" x1="100.168" y1="55.2192" x2="148.204" y2="123.241" gradientUnits="userSpaceOnUse">
<stop stop-color="#62C943"/>
<stop offset="1" stop-color="#ABE224"/>
</linearGradient>
<linearGradient id="paint4_linear_38_452" x1="202.133" y1="60.7206" x2="154.098" y2="128.743" gradientUnits="userSpaceOnUse">
<stop stop-color="#62C943"/>
<stop offset="1" stop-color="#9BDC2B"/>
</linearGradient>
<linearGradient id="paint5_linear_38_452" x1="121.75" y1="276" x2="68" y2="381" gradientUnits="userSpaceOnUse">
<stop stop-color="#EF9366"/>
<stop offset="1" stop-color="#0E8ACE"/>
</linearGradient>
<linearGradient id="paint6_linear_38_452" x1="18" y1="3.67391e-08" x2="16.6645" y2="66.3296" gradientUnits="userSpaceOnUse">
<stop stop-color="#31C538"/>
<stop offset="1" stop-color="#175F1B"/>
</linearGradient>
</defs>
</svg>
